<?xml version='1.0' encoding='UTF-8' standalone='no'?>
<svg baseProfile="tiny" viewBox="0 0 324 124" xmlns="http://www.w3.org/2000/svg" height="32.8083mm" version="1.2" width="85.725mm" xmlns:xlink="http://www.w3.org/1999/xlink">
 <title>Qt SVG Document</title>
 <desc>Generated with Qt</desc>
 <defs>
  <radialGradient cx="0" gradientUnits="objectBoundingBox" cy="0" fx="0.25" fy="0.25" r="1" id="gradient1">
   <stop stop-opacity="1" stop-color="#ffffff" offset="0"/>
   <stop stop-opacity="1" stop-color="#dbffff" offset="1"/>
  </radialGradient>
  <radialGradient cx="0" gradientUnits="objectBoundingBox" cy="0" fx="0.25" fy="0.25" r="1" id="gradient2">
   <stop stop-opacity="1" stop-color="#ffffff" offset="0"/>
   <stop stop-opacity="1" stop-color="#dbffff" offset="1"/>
  </radialGradient>
  <radialGradient cx="0" gradientUnits="objectBoundingBox" cy="0" fx="0.25" fy="0.25" r="1" id="gradient3">
   <stop stop-opacity="1" stop-color="#ffffff" offset="0"/>
   <stop stop-opacity="1" stop-color="#dbffff" offset="1"/>
  </radialGradient>
  <radialGradient cx="0" gradientUnits="objectBoundingBox" cy="0" fx="0.25" fy="0.25" r="1" id="gradient4">
   <stop stop-opacity="1" stop-color="#ffffff" offset="0"/>
   <stop stop-opacity="1" stop-color="#dbffff" offset="1"/>
  </radialGradient>
  <radialGradient cx="0" gradientUnits="objectBoundingBox" cy="0" fx="0.25" fy="0.25" r="1" id="gradient5">
   <stop stop-opacity="1" stop-color="#ffffff" offset="0"/>
   <stop stop-opacity="1" stop-color="#dbffff" offset="1"/>
  </radialGradient>
  <radialGradient cx="0" gradientUnits="objectBoundingBox" cy="0" fx="0.25" fy="0.25" r="1" id="gradient6">
   <stop stop-opacity="1" stop-color="#ffffff" offset="0"/>
   <stop stop-opacity="1" stop-color="#dbffff" offset="1"/>
  </radialGradient>
  <radialGradient cx="0" gradientUnits="objectBoundingBox" cy="0" fx="0.25" fy="0.25" r="1" id="gradient7">
   <stop stop-opacity="1" stop-color="#ffffff" offset="0"/>
   <stop stop-opacity="1" stop-color="#dbffff" offset="1"/>
  </radialGradient>
  <radialGradient cx="0" gradientUnits="objectBoundingBox" cy="0" fx="0.25" fy="0.25" r="1" id="gradient8">
   <stop stop-opacity="1" stop-color="#ffffff" offset="0"/>
   <stop stop-opacity="1" stop-color="#dbffff" offset="1"/>
  </radialGradient>
  <radialGradient cx="0" gradientUnits="objectBoundingBox" cy="0" fx="0.25" fy="0.25" r="1" id="gradient9">
   <stop stop-opacity="1" stop-color="#ffffff" offset="0"/>
   <stop stop-opacity="1" stop-color="#dbffff" offset="1"/>
  </radialGradient>
  <radialGradient cx="0" gradientUnits="objectBoundingBox" cy="0" fx="0.25" fy="0.25" r="1" id="gradient10">
   <stop stop-opacity="1" stop-color="#ffffff" offset="0"/>
   <stop stop-opacity="1" stop-color="#dbffff" offset="1"/>
  </radialGradient>
 </defs>
 <g fill-rule="evenodd" stroke-linejoin="bevel" stroke="black" stroke-width="1" stroke-linecap="square" fill="none">
  <g font-weight="400" stroke-linejoin="bevel" transform="matrix(1,0,0,1,0,0)" stroke="#000000" font-family="Sans Serif" stroke-width="1" stroke-linecap="square" fill="none" stroke-opacity="1" font-size="12" font-style="normal"/>
  <g font-weight="400" transform="matrix(1,0,0,1,10,11)" stroke="none" font-family="Sans Serif" fill-opacity="1" fill="#ffffff" font-size="12" font-style="normal">
   <rect x="-10" y="-11" height="124" width="324"/>
  </g>
  <g font-weight="400" stroke-linejoin="bevel" transform="matrix(1,0,0,1,10,11)" stroke="#000000" font-family="Sans Serif" stroke-width="1" stroke-linecap="square" fill="none" stroke-opacity="1" font-size="12" font-style="normal"/>
  <g font-weight="400" stroke-linejoin="bevel" transform="matrix(1,0,0,1,10,11)" stroke="#000000" font-family="Sans Serif" stroke-width="1" stroke-linecap="square" fill="url(#gradient1)" stroke-opacity="1" font-size="12" font-style="normal">
   <path fill-rule="evenodd" vector-effect="none" d="M64,31 C64,48.6731 49.6731,63 32,63 C14.3269,63 0,48.6731 0,31 C0,13.3269 14.3269,-1 32,-1 C49.6731,-1 64,13.3269 64,31 "/>
  </g>
  <g font-weight="400" stroke-linejoin="bevel" transform="matrix(1,0,0,1,10,11)" stroke="#000000" font-family="DejaVu Sans" stroke-width="1" stroke-linecap="square" fill="url(#gradient2)" stroke-opacity="1" font-size="10.6667" font-style="normal">
   <text xml:space="preserve" font-weight="400" stroke="none" x="24" y="34.5" font-family="DejaVu Sans" fill-opacity="1" fill="#000000" font-size="10.6667" font-style="normal">init</text>
  </g>
  <g font-weight="400" stroke-linejoin="bevel" transform="matrix(1,0,0,1,10,11)" stroke="#000000" font-family="Sans Serif" stroke-width="1" stroke-linecap="square" fill="none" stroke-opacity="1" font-size="12" font-style="normal"/>
  <g font-weight="400" stroke-linejoin="bevel" transform="matrix(1,0,0,1,10,11)" stroke="#000000" font-family="Sans Serif" stroke-width="1" stroke-linecap="square" fill="none" stroke-opacity="1" font-size="12" font-style="normal"/>
  <g font-weight="400" stroke-linejoin="bevel" transform="matrix(1,0,0,1,10,11)" stroke="#000000" font-family="Sans Serif" stroke-width="1" stroke-linecap="square" fill="url(#gradient3)" stroke-opacity="1" font-size="12" font-style="normal">
   <path fill-rule="evenodd" vector-effect="none" d="M304,31 C304,48.6731 289.673,63 272,63 C254.327,63 240,48.6731 240,31 C240,13.3269 254.327,-1 272,-1 C289.673,-1 304,13.3269 304,31 "/>
  </g>
  <g font-weight="400" stroke-linejoin="bevel" transform="matrix(1,0,0,1,10,11)" stroke="#000000" font-family="DejaVu Sans" stroke-width="1" stroke-linecap="square" fill="url(#gradient4)" stroke-opacity="1" font-size="10.6667" font-style="normal">
   <text xml:space="preserve" font-weight="400" stroke="none" x="250.5" y="34.5" font-family="DejaVu Sans" fill-opacity="1" fill="#000000" font-size="10.6667" font-style="normal">do_cmd</text>
  </g>
  <g font-weight="400" stroke-linejoin="bevel" transform="matrix(1,0,0,1,10,11)" stroke="#000000" font-family="Sans Serif" stroke-width="1" stroke-linecap="square" fill="none" stroke-opacity="1" font-size="12" font-style="normal"/>
  <g font-weight="400" stroke-linejoin="bevel" transform="matrix(1,0,0,1,10,11)" stroke="#000000" font-family="Sans Serif" stroke-width="1" stroke-linecap="square" fill="none" stroke-opacity="1" font-size="12" font-style="normal"/>
  <g font-weight="400" stroke-linejoin="bevel" transform="matrix(1,0,0,1,10,11)" stroke="#000000" font-family="Sans Serif" stroke-width="1" stroke-linecap="square" fill="url(#gradient5)" stroke-opacity="1" font-size="12" font-style="normal">
   <path fill-rule="evenodd" vector-effect="none" d="M184,71 C184,88.6731 169.673,103 152,103 C134.327,103 120,88.6731 120,71 C120,53.3269 134.327,39 152,39 C169.673,39 184,53.3269 184,71 "/>
  </g>
  <g font-weight="400" stroke-linejoin="bevel" transform="matrix(1,0,0,1,10,11)" stroke="#000000" font-family="DejaVu Sans" stroke-width="1" stroke-linecap="square" fill="url(#gradient6)" stroke-opacity="1" font-size="10.6667" font-style="normal"/>
  <g font-weight="400" stroke-linejoin="bevel" transform="matrix(1,0,0,1,10,11)" stroke="#000000" font-family="DejaVu Sans" stroke-width="1" stroke-linecap="square" fill="url(#gradient7)" stroke-opacity="1" font-size="10.6667" font-style="normal">
   <text xml:space="preserve" font-weight="400" stroke="none" x="124.5" y="74.5" font-family="DejaVu Sans" fill-opacity="1" fill="#000000" font-size="10.6667" font-style="normal">read_cmd</text>
  </g>
  <g font-weight="400" stroke-linejoin="bevel" transform="matrix(1,0,0,1,10,11)" stroke="#000000" font-family="DejaVu Sans" stroke-width="1" stroke-linecap="square" fill="url(#gradient8)" stroke-opacity="1" font-size="10.6667" font-style="normal"/>
  <g font-weight="400" stroke-linejoin="bevel" transform="matrix(1,0,0,1,0,0)" stroke="#000000" font-family="DejaVu Sans" stroke-width="1" stroke-linecap="square" fill="url(#gradient9)" stroke-opacity="1" font-size="10.6667" font-style="normal"/>
  <g font-weight="400" stroke-linejoin="bevel" transform="matrix(1,0,0,1,10,11)" stroke="#000000" font-family="DejaVu Sans" stroke-width="1" stroke-linecap="square" fill="url(#gradient10)" stroke-opacity="1" font-size="10.6667" font-style="normal"/>
  <g font-weight="400" stroke-linejoin="bevel" transform="matrix(1,0,0,1,10,11)" stroke="#000000" font-family="Sans Serif" stroke-width="1" stroke-linecap="square" fill="none" stroke-opacity="1" font-size="12" font-style="normal"/>
  <g font-weight="400" stroke-linejoin="bevel" transform="matrix(1,0,0,1,10,11)" stroke="#000000" font-family="Sans Serif" stroke-width="1" stroke-linecap="square" fill="none" stroke-opacity="1" font-size="12" font-style="normal"/>
  <g font-weight="400" stroke-linejoin="bevel" transform="matrix(1,0,0,1,10,11)" stroke="#000000" font-family="Sans Serif" stroke-width="1" fill-opacity="1" stroke-linecap="square" fill="#000000" stroke-opacity="1" font-size="12" font-style="normal">
   <path fill-rule="evenodd" vector-effect="none" d="M62.0791,40.7628 L62.9659,41.0581 L63.8616,41.3556 L64.7659,41.6553 L65.6786,41.9572 L66.5992,42.2612 L67.5275,42.5673 L68.4631,42.8754 L69.4057,43.1856 L70.355,43.4977 L71.3108,43.8117 L72.2726,44.1275 L73.2401,44.4452 L74.2131,44.7646 L75.1912,45.0858 L76.1742,45.4086 L77.1616,45.7331 L78.1532,46.0591 L79.1486,46.3867 L80.1476,46.7158 L81.1498,47.0464 L82.1549,47.3783 L83.1626,47.7116 L84.1726,48.0462 L85.1845,48.3821 L86.1981,48.7193 L87.213,49.0576 L88.2289,49.397 L89.2454,49.7375 L90.2624,50.0791 L91.2794,50.4216 L92.2961,50.7652 L93.3123,51.1096 L94.3276,51.4549 L95.3416,51.801 L96.3541,52.1479 L97.3648,52.4955 L98.3733,52.8437 L99.3793,53.1927 L100.383,53.5422 L101.383,53.8922 L102.379,54.2428 L103.372,54.5938 L104.361,54.9452 L105.346,55.297 L106.325,55.6491 L107.3,56.0015 L108.27,56.3541 L109.233,56.7069 L110.191,57.0598 L111.143,57.4128 L111.94,57.7106 L113,54 L121,61 L111,61 L111.802,58.1929 L110.968,57.8813 L110.017,57.5285 L109.06,57.1759 L108.097,56.8233 L107.128,56.471 L106.154,56.1188 L105.175,55.767 L104.191,55.4154 L103.203,55.0642 L102.211,54.7135 L101.215,54.3631 L100.215,54.0133 L99.2124,53.664 L98.207,53.3153 L97.199,52.9672 L96.1889,52.6198 L95.1769,52.2731 L94.1634,51.9272 L93.1486,51.5821 L92.133,51.2378 L91.1167,50.8945 L90.1001,50.552 L89.0836,50.2106 L88.0675,49.8703 L87.052,49.531 L86.0375,49.1928 L85.0243,48.8558 L84.0127,48.52 L83.0031,48.1855 L81.9957,47.8523 L80.9909,47.5204 L79.9889,47.19 L78.9902,46.861 L77.995,46.5335 L77.0036,46.2075 L76.0163,45.8831 L75.0336,45.5603 L74.0556,45.2392 L73.0827,44.9198 L72.1152,44.6021 L71.1535,44.2863 L70.1978,43.9723 L69.2485,43.6602 L68.3058,43.3501 L67.3702,43.0419 L66.4418,42.7358 L65.5211,42.4317 L64.6084,42.1298 L63.7039,41.83 L62.808,41.5325 L61.9209,41.2372 L61.6838,41.1581 L61.8419,40.6838 L62.0791,40.7628"/>
  </g>
  <g font-weight="400" stroke-linejoin="bevel" transform="matrix(1,0,0,1,10,11)" stroke="#000000" font-family="DejaVu Sans" stroke-width="1" fill-opacity="1" stroke-linecap="square" fill="#000000" stroke-opacity="1" font-size="10.6667" font-style="normal"/>
  <g font-weight="400" stroke-linejoin="bevel" transform="matrix(1,0,0,1,10,11)" stroke="#000000" font-family="DejaVu Sans" stroke-width="1" fill-opacity="1" stroke-linecap="square" fill="#000000" stroke-opacity="1" font-size="10.6667" font-style="normal">
   <text xml:space="preserve" font-weight="400" stroke="none" x="82" y="63" font-family="DejaVu Sans" fill-opacity="1" fill="#000000" font-size="10.6667" font-style="normal">364</text>
  </g>
  <g font-weight="400" stroke-linejoin="bevel" transform="matrix(1,0,0,1,10,11)" stroke="#000000" font-family="DejaVu Sans" stroke-width="1" fill-opacity="1" stroke-linecap="square" fill="#000000" stroke-opacity="1" font-size="10.6667" font-style="normal"/>
  <g font-weight="400" stroke-linejoin="bevel" transform="matrix(1,0,0,1,0,0)" stroke="#000000" font-family="DejaVu Sans" stroke-width="1" fill-opacity="1" stroke-linecap="square" fill="#000000" stroke-opacity="1" font-size="10.6667" font-style="normal"/>
  <g font-weight="400" stroke-linejoin="bevel" transform="matrix(1,0,0,1,10,11)" stroke="#000000" font-family="DejaVu Sans" stroke-width="1" fill-opacity="1" stroke-linecap="square" fill="#000000" stroke-opacity="1" font-size="10.6667" font-style="normal"/>
  <g font-weight="400" stroke-linejoin="bevel" transform="matrix(1,0,0,1,10,11)" stroke="#000000" font-family="Sans Serif" stroke-width="1" stroke-linecap="square" fill="none" stroke-opacity="1" font-size="12" font-style="normal"/>
  <g font-weight="400" stroke-linejoin="bevel" transform="matrix(1,0,0,1,10,11)" stroke="#000000" font-family="Sans Serif" stroke-width="1" stroke-linecap="square" fill="none" stroke-opacity="1" font-size="12" font-style="normal"/>
  <g font-weight="400" stroke-linejoin="bevel" transform="matrix(1,0,0,1,10,11)" stroke="#000000" font-family="Sans Serif" stroke-width="1" fill-opacity="1" stroke-linecap="square" fill="#000000" stroke-opacity="1" font-size="12" font-style="normal">
   <path fill-rule="evenodd" vector-effect="none" d="M240.957,24.2462 L240.074,24.0911 L239.184,23.936 L238.288,23.7809 L237.385,23.626 L236.476,23.4712 L235.56,23.3165 L234.639,23.162 L233.711,23.0078 L232.778,22.8537 L231.84,22.7 L230.896,22.5466 L229.947,22.3935 L228.994,22.2408 L228.035,22.0884 L227.072,21.9365 L226.105,21.7851 L225.133,21.6342 L224.157,21.4838 L223.178,21.3339 L222.195,21.1846 L221.208,21.036 L220.219,20.8879 L219.226,20.7406 L218.23,20.594 L217.232,20.4481 L216.231,20.303 L215.228,20.1586 L214.222,20.0151 L213.215,19.8725 L212.206,19.7308 L211.195,19.5899 L210.183,19.4501 L209.17,19.3112 L208.155,19.1733 L207.14,19.0365 L206.124,18.9007 L205.107,18.7661 L204.091,18.6326 L203.074,18.5003 L202.057,18.3691 L201.04,18.2392 L200.024,18.1106 L199.008,17.9832 L197.994,17.8572 L196.98,17.7325 L195.967,17.6092 L194.956,17.4873 L193.946,17.3669 L192.938,17.2479 L191.932,17.1304 L190.928,17.0145 L189.926,16.9001 L188.927,16.7874 L187.93,16.6762 L186.937,16.5668 L185.946,16.459 L184.958,16.3529 L183.978,16.2491 L182.664,16.1557 L181.376,16.065 L180.115,15.9773 L178.882,15.8927 L177.676,15.8111 L176.495,15.7325 L175.338,15.657 L174.205,15.5844 L173.094,15.5149 L172.005,15.4484 L170.937,15.3849 L169.889,15.3245 L168.859,15.2671 L167.847,15.2127 L166.851,15.1613 L165.872,15.1129 L164.907,15.0676 L163.957,15.0253 L163.019,14.986 L162.093,14.9497 L161.179,14.9165 L160.274,14.8862 L159.379,14.859 L158.491,14.8348 L157.611,14.8137 L156.737,14.7956 L155.869,14.7804 L155.005,14.7684 L154.144,14.7593 L153.285,14.7532 L152.428,14.7502 L151.572,14.7502 L150.715,14.7532 L149.856,14.7593 L148.995,14.7684 L148.131,14.7804 L147.263,14.7956 L146.389,14.8137 L145.509,14.8348 L144.621,14.859 L143.726,14.8862 L142.821,14.9165 L141.907,14.9497 L140.981,14.986 L140.043,15.0253 L139.093,15.0676 L138.128,15.1129 L137.149,15.1613 L136.153,15.2127 L135.141,15.2671 L134.111,15.3245 L133.063,15.3849 L131.995,15.4484 L130.906,15.5149 L129.795,15.5844 L128.662,15.657 L127.505,15.7325 L126.324,15.8111 L125.118,15.8927 L123.885,15.9773 L122.624,16.065 L121.336,16.1557 L120.018,16.2494 L120.017,16.2494 L119.057,16.3159 L118.093,16.3877 L117.124,16.4647 L116.15,16.5467 L115.172,16.6337 L114.19,16.7256 L113.204,16.8222 L112.215,16.9234 L111.223,17.0291 L110.228,17.1393 L109.23,17.2536 L108.23,17.3722 L107.228,17.4948 L106.225,17.6213 L105.22,17.7516 L104.214,17.8856 L103.207,18.0232 L102.2,18.1643 L101.192,18.3087 L100.185,18.4564 L99.1775,18.6071 L98.1709,18.7609 L97.1653,18.9176 L96.1608,19.077 L95.1579,19.2391 L94.1567,19.4038 L93.1576,19.5708 L92.1608,19.7402 L91.1667,19.9118 L90.1755,20.0855 L89.1875,20.2611 L88.203,20.4386 L87.2224,20.6178 L86.2458,20.7986 L85.2735,20.981 L84.306,21.1647 L83.3433,21.3497 L82.3859,21.5358 L81.4341,21.7231 L80.488,21.9112 L79.548,22.1001 L78.6145,22.2898 L77.6875,22.48 L76.7676,22.6707 L75.8549,22.8618 L74.9497,23.053 L74.0524,23.2445 L73.8079,23.2968 L73.7032,22.8079 L73.9476,22.7555 L74.8456,22.564 L75.7514,22.3726 L76.6648,22.1814 L77.5856,21.9905 L78.5134,21.8001 L79.4479,21.6103 L80.3889,21.4212 L81.336,21.2328 L82.289,21.0454 L83.2475,20.8591 L84.2114,20.6738 L85.1802,20.4899 L86.1538,20.3073 L87.1317,20.1262 L88.1138,19.9468 L89.0997,19.7691 L90.0892,19.5932 L91.0819,19.4193 L92.0776,19.2474 L93.076,19.0778 L94.0767,18.9105 L95.0795,18.7456 L96.0842,18.5832 L97.0904,18.4235 L98.0977,18.2666 L99.1061,18.1126 L100.115,17.9615 L101.124,17.8136 L102.134,17.669 L103.143,17.5276 L104.152,17.3898 L105.159,17.2555 L106.166,17.125 L107.172,16.9982 L108.175,16.8754 L109.177,16.7566 L110.176,16.642 L111.173,16.5317 L112.167,16.4258 L113.158,16.3244 L114.146,16.2276 L115.13,16.1356 L116.11,16.0484 L117.085,15.9662 L118.056,15.8891 L119.022,15.8171 L119.982,15.7506 L119.982,15.7506 L121.301,15.6569 L122.591,15.5661 L123.852,15.4784 L125.086,15.3938 L126.293,15.3121 L127.475,15.2335 L128.633,15.1579 L129.767,15.0853 L130.879,15.0157 L131.969,14.9492 L133.038,14.8857 L134.088,14.8252 L135.119,14.7677 L136.132,14.7133 L137.128,14.6619 L138.109,14.6135 L139.075,14.5681 L140.027,14.5258 L140.965,14.4864 L141.892,14.4501 L142.808,14.4169 L143.714,14.3866 L144.611,14.3594 L145.499,14.3352 L146.381,14.314 L147.256,14.2959 L148.125,14.2808 L148.991,14.2687 L149.853,14.2596 L150.713,14.2536 L151.571,14.2505 L152.429,14.2505 L153.287,14.2536 L154.147,14.2596 L155.009,14.2687 L155.875,14.2808 L156.744,14.2959 L157.619,14.314 L158.501,14.3352 L159.389,14.3594 L160.286,14.3866 L161.192,14.4169 L162.108,14.4501 L163.035,14.4864 L163.973,14.5258 L164.925,14.5681 L165.891,14.6135 L166.872,14.6619 L167.868,14.7133 L168.881,14.7677 L169.912,14.8252 L170.962,14.8857 L172.031,14.9492 L173.121,15.0157 L174.233,15.0853 L175.367,15.1579 L176.525,15.2335 L177.707,15.3121 L178.914,15.3938 L180.148,15.4784 L181.409,15.5661 L182.699,15.6569 L184.018,15.7506 L184.026,15.7514 L185.011,15.8557 L185.999,15.9618 L186.99,16.0697 L187.985,16.1792 L188.982,16.2904 L189.982,16.4032 L190.984,16.5177 L191.989,16.6337 L192.995,16.7512 L194.004,16.8702 L195.014,16.9907 L196.026,17.1127 L197.04,17.2361 L198.054,17.3608 L199.069,17.487 L200.085,17.6144 L201.102,17.7431 L202.12,17.8731 L203.137,18.0043 L204.155,18.1368 L205.172,18.2704 L206.189,18.4051 L207.206,18.5409 L208.222,18.6779 L209.237,18.8158 L210.251,18.9548 L211.264,19.0948 L212.275,19.2357 L213.285,19.3775 L214.293,19.5202 L215.299,19.6638 L216.303,19.8082 L217.305,19.9535 L218.304,20.0995 L219.3,20.2462 L220.293,20.3936 L221.284,20.5417 L222.271,20.6905 L223.255,20.8399 L224.235,20.9898 L225.211,21.1403 L226.183,21.2914 L227.151,21.4429 L228.115,21.5949 L229.074,21.7473 L230.028,21.9001 L230.978,22.0533 L231.922,22.2068 L232.861,22.3606 L233.794,22.5147 L234.722,22.6691 L235.644,22.8236 L236.56,22.9784 L237.47,23.1333 L238.374,23.2883 L239.27,23.4434 L240.16,23.5986 L241.043,23.7538 L241.29,23.7973 L241.203,24.2896 L240.957,24.2462 M73,19 L63,24 L74,26 L73,19"/>
  </g>
  <g font-weight="400" stroke-linejoin="bevel" transform="matrix(1,0,0,1,10,11)" stroke="#000000" font-family="DejaVu Sans" stroke-width="1" fill-opacity="1" stroke-linecap="square" fill="#000000" stroke-opacity="1" font-size="10.6667" font-style="normal"/>
  <g font-weight="400" stroke-linejoin="bevel" transform="matrix(1,0,0,1,10,11)" stroke="#000000" font-family="DejaVu Sans" stroke-width="1" fill-opacity="1" stroke-linecap="square" fill="#000000" stroke-opacity="1" font-size="10.6667" font-style="normal">
   <text xml:space="preserve" font-weight="400" stroke="none" x="142" y="26" font-family="DejaVu Sans" fill-opacity="1" fill="#000000" font-size="10.6667" font-style="normal">364</text>
  </g>
  <g font-weight="400" stroke-linejoin="bevel" transform="matrix(1,0,0,1,10,11)" stroke="#000000" font-family="DejaVu Sans" stroke-width="1" fill-opacity="1" stroke-linecap="square" fill="#000000" stroke-opacity="1" font-size="10.6667" font-style="normal"/>
  <g font-weight="400" stroke-linejoin="bevel" transform="matrix(1,0,0,1,0,0)" stroke="#000000" font-family="DejaVu Sans" stroke-width="1" fill-opacity="1" stroke-linecap="square" fill="#000000" stroke-opacity="1" font-size="10.6667" font-style="normal"/>
  <g font-weight="400" stroke-linejoin="bevel" transform="matrix(1,0,0,1,10,11)" stroke="#000000" font-family="DejaVu Sans" stroke-width="1" fill-opacity="1" stroke-linecap="square" fill="#000000" stroke-opacity="1" font-size="10.6667" font-style="normal"/>
  <g font-weight="400" stroke-linejoin="bevel" transform="matrix(1,0,0,1,10,11)" stroke="#000000" font-family="Sans Serif" stroke-width="1" stroke-linecap="square" fill="none" stroke-opacity="1" font-size="12" font-style="normal"/>
  <g font-weight="400" stroke-linejoin="bevel" transform="matrix(1,0,0,1,10,11)" stroke="#000000" font-family="Sans Serif" stroke-width="1" stroke-linecap="square" fill="none" stroke-opacity="1" font-size="12" font-style="normal"/>
  <g font-weight="400" stroke-linejoin="bevel" transform="matrix(1,0,0,1,10,11)" stroke="#000000" font-family="Sans Serif" stroke-width="1" fill-opacity="1" stroke-linecap="square" fill="#000000" stroke-opacity="1" font-size="12" font-style="normal">
   <path fill-rule="evenodd" vector-effect="none" d="M181.921,60.7628 L182.808,60.4675 L183.704,60.17 L184.608,59.8702 L185.521,59.5683 L186.442,59.2642 L187.37,58.9581 L188.306,58.6499 L189.248,58.3398 L190.198,58.0277 L191.153,57.7137 L192.115,57.3979 L193.083,57.0802 L194.056,56.7608 L195.034,56.4397 L196.016,56.1169 L197.004,55.7925 L197.995,55.4665 L198.99,55.139 L199.989,54.81 L200.991,54.4796 L201.996,54.1477 L203.003,53.8145 L204.013,53.48 L205.024,53.1442 L206.038,52.8072 L207.052,52.469 L208.067,52.1297 L209.084,51.7894 L210.1,51.448 L211.117,51.1055 L212.133,50.7622 L213.149,50.4179 L214.163,50.0728 L215.177,49.7269 L216.189,49.3802 L217.199,49.0328 L218.207,48.6847 L219.212,48.336 L220.215,47.9867 L221.215,47.6369 L222.211,47.2865 L223.203,46.9358 L224.191,46.5846 L225.175,46.233 L226.154,45.8812 L227.128,45.529 L228.097,45.1767 L229.06,44.8241 L230.017,44.4715 L230.968,44.1187 L231.802,43.8071 L231,41 L241,41 L233,48 L231.94,44.2894 L231.143,44.5872 L230.191,44.9402 L229.233,45.2931 L228.27,45.6459 L227.3,45.9985 L226.325,46.3509 L225.346,46.703 L224.361,47.0548 L223.372,47.4062 L222.379,47.7572 L221.383,48.1078 L220.383,48.4578 L219.379,48.8073 L218.373,49.1563 L217.365,49.5045 L216.354,49.8521 L215.342,50.199 L214.328,50.5451 L213.312,50.8904 L212.296,51.2348 L211.279,51.5784 L210.262,51.9209 L209.245,52.2625 L208.229,52.603 L207.213,52.9424 L206.198,53.2807 L205.185,53.6179 L204.173,53.9538 L203.163,54.2884 L202.155,54.6217 L201.15,54.9536 L200.148,55.2842 L199.149,55.6133 L198.153,55.9409 L197.162,56.2669 L196.174,56.5914 L195.191,56.9142 L194.213,57.2354 L193.24,57.5548 L192.273,57.8725 L191.311,58.1883 L190.355,58.5023 L189.406,58.8144 L188.463,59.1246 L187.527,59.4327 L186.599,59.7388 L185.679,60.0428 L184.766,60.3447 L183.862,60.6444 L182.966,60.9419 L182.079,61.2372 L181.842,61.3162 L181.684,60.8419 L181.921,60.7628"/>
  </g>
  <g font-weight="400" stroke-linejoin="bevel" transform="matrix(1,0,0,1,10,11)" stroke="#000000" font-family="DejaVu Sans" stroke-width="1" fill-opacity="1" stroke-linecap="square" fill="#000000" stroke-opacity="1" font-size="10.6667" font-style="normal"/>
  <g font-weight="400" stroke-linejoin="bevel" transform="matrix(1,0,0,1,10,11)" stroke="#000000" font-family="DejaVu Sans" stroke-width="1" fill-opacity="1" stroke-linecap="square" fill="#000000" stroke-opacity="1" font-size="10.6667" font-style="normal">
   <text xml:space="preserve" font-weight="400" stroke="none" x="202" y="63" font-family="DejaVu Sans" fill-opacity="1" fill="#000000" font-size="10.6667" font-style="normal">364</text>
  </g>
  <g font-weight="400" stroke-linejoin="bevel" transform="matrix(1,0,0,1,10,11)" stroke="#000000" font-family="DejaVu Sans" stroke-width="1" fill-opacity="1" stroke-linecap="square" fill="#000000" stroke-opacity="1" font-size="10.6667" font-style="normal"/>
  <g font-weight="400" stroke-linejoin="bevel" transform="matrix(1,0,0,1,0,0)" stroke="#000000" font-family="DejaVu Sans" stroke-width="1" fill-opacity="1" stroke-linecap="square" fill="#000000" stroke-opacity="1" font-size="10.6667" font-style="normal"/>
  <g font-weight="400" stroke-linejoin="bevel" transform="matrix(1,0,0,1,10,11)" stroke="#000000" font-family="DejaVu Sans" stroke-width="1" fill-opacity="1" stroke-linecap="square" fill="#000000" stroke-opacity="1" font-size="10.6667" font-style="normal"/>
  <g font-weight="400" stroke-linejoin="bevel" transform="matrix(1,0,0,1,10,11)" stroke="#000000" font-family="Sans Serif" stroke-width="1" stroke-linecap="square" fill="none" stroke-opacity="1" font-size="12" font-style="normal"/>
  <g font-weight="400" stroke-linejoin="bevel" transform="matrix(1,0,0,1,0,0)" stroke="#000000" font-family="Sans Serif" stroke-width="1" stroke-linecap="square" fill="none" stroke-opacity="1" font-size="12" font-style="normal"/>
 </g>
</svg>
