<?xml version='1.0' encoding='UTF-8' standalone='no'?>
<svg baseProfile="tiny" viewBox="0 0 312 138" xmlns="http://www.w3.org/2000/svg" height="36.5125mm" version="1.2" width="82.55mm" xmlns:xlink="http://www.w3.org/1999/xlink">
 <title>Qt SVG Document</title>
 <desc>Generated with Qt</desc>
 <defs>
  <radialGradient cx="0" gradientUnits="objectBoundingBox" cy="0" fx="0.25" fy="0.25" r="1" id="gradient1">
   <stop stop-opacity="1" stop-color="#ffffff" offset="0"/>
   <stop stop-opacity="1" stop-color="#dbffff" offset="1"/>
  </radialGradient>
  <radialGradient cx="0" gradientUnits="objectBoundingBox" cy="0" fx="0.25" fy="0.25" r="1" id="gradient2">
   <stop stop-opacity="1" stop-color="#ffffff" offset="0"/>
   <stop stop-opacity="1" stop-color="#dbffff" offset="1"/>
  </radialGradient>
  <radialGradient cx="0" gradientUnits="objectBoundingBox" cy="0" fx="0.25" fy="0.25" r="1" id="gradient3">
   <stop stop-opacity="1" stop-color="#ffffff" offset="0"/>
   <stop stop-opacity="1" stop-color="#dbffff" offset="1"/>
  </radialGradient>
  <radialGradient cx="0" gradientUnits="objectBoundingBox" cy="0" fx="0.25" fy="0.25" r="1" id="gradient4">
   <stop stop-opacity="1" stop-color="#ffffff" offset="0"/>
   <stop stop-opacity="1" stop-color="#dbffff" offset="1"/>
  </radialGradient>
 </defs>
 <g fill-rule="evenodd" stroke-linejoin="bevel" stroke="black" stroke-width="1" stroke-linecap="square" fill="none">
  <g font-weight="400" stroke-linejoin="bevel" transform="matrix(1,0,0,1,0,0)" stroke="#000000" font-family="Sans Serif" stroke-width="1" stroke-linecap="square" fill="none" stroke-opacity="1" font-size="12" font-style="normal"/>
  <g font-weight="400" transform="matrix(1,0,0,1,10,11)" stroke="none" font-family="Sans Serif" fill-opacity="1" fill="#ffffff" font-size="12" font-style="normal">
   <rect x="-10" y="-11" height="138" width="312"/>
  </g>
  <g font-weight="400" stroke-linejoin="bevel" transform="matrix(1,0,0,1,10,11)" stroke="#000000" font-family="Sans Serif" stroke-width="1" stroke-linecap="square" fill="none" stroke-opacity="1" font-size="12" font-style="normal"/>
  <g font-weight="400" stroke-linejoin="bevel" transform="matrix(1,0,0,1,10,11)" stroke="#000000" font-family="Sans Serif" stroke-width="1" stroke-linecap="square" fill="url(#gradient1)" stroke-opacity="1" font-size="12" font-style="normal">
   <path fill-rule="evenodd" vector-effect="none" d="M118,58 C118,90.5848 91.5848,117 59,117 C26.4152,117 0,90.5848 0,58 C0,25.4152 26.4152,-1 59,-1 C91.5848,-1 118,25.4152 118,58 "/>
  </g>
  <g font-weight="400" stroke-linejoin="bevel" transform="matrix(1,0,0,1,10,11)" stroke="#000000" font-family="DejaVu Sans" stroke-width="1" stroke-linecap="square" fill="url(#gradient2)" stroke-opacity="1" font-size="10.6667" font-style="normal">
   <text xml:space="preserve" font-weight="400" stroke="none" x="28.5" y="55.5" font-family="DejaVu Sans" fill-opacity="1" fill="#000000" font-size="10.6667" font-style="normal">command_</text>
   <text xml:space="preserve" font-weight="400" stroke="none" x="35.5" y="68.5" font-family="DejaVu Sans" fill-opacity="1" fill="#000000" font-size="10.6667" font-style="normal">received</text>
  </g>
  <g font-weight="400" stroke-linejoin="bevel" transform="matrix(1,0,0,1,10,11)" stroke="#000000" font-family="Sans Serif" stroke-width="1" stroke-linecap="square" fill="none" stroke-opacity="1" font-size="12" font-style="normal"/>
  <g font-weight="400" stroke-linejoin="bevel" transform="matrix(1,0,0,1,10,11)" stroke="#000000" font-family="Sans Serif" stroke-width="1" stroke-linecap="square" fill="none" stroke-opacity="1" font-size="12" font-style="normal"/>
  <g font-weight="400" stroke-linejoin="bevel" transform="matrix(1,0,0,1,10,11)" stroke="#000000" font-family="Sans Serif" stroke-width="1" stroke-linecap="square" fill="url(#gradient3)" stroke-opacity="1" font-size="12" font-style="normal">
   <path fill-rule="evenodd" vector-effect="none" d="M292,58 C292,90.5848 265.585,117 233,117 C200.415,117 174,90.5848 174,58 C174,25.4152 200.415,-1 233,-1 C265.585,-1 292,25.4152 292,58 "/>
  </g>
  <g font-weight="400" stroke-linejoin="bevel" transform="matrix(1,0,0,1,10,11)" stroke="#000000" font-family="DejaVu Sans" stroke-width="1" stroke-linecap="square" fill="url(#gradient4)" stroke-opacity="1" font-size="10.6667" font-style="normal">
   <text xml:space="preserve" font-weight="400" stroke="none" x="204.5" y="62" font-family="DejaVu Sans" fill-opacity="1" fill="#000000" font-size="10.6667" font-style="normal">wait_state</text>
  </g>
  <g font-weight="400" stroke-linejoin="bevel" transform="matrix(1,0,0,1,10,11)" stroke="#000000" font-family="Sans Serif" stroke-width="1" stroke-linecap="square" fill="none" stroke-opacity="1" font-size="12" font-style="normal"/>
  <g font-weight="400" stroke-linejoin="bevel" transform="matrix(1,0,0,1,10,11)" stroke="#000000" font-family="Sans Serif" stroke-width="1" stroke-linecap="square" fill="none" stroke-opacity="1" font-size="12" font-style="normal"/>
  <g font-weight="400" stroke-linejoin="bevel" transform="matrix(1,0,0,1,10,11)" stroke="#000000" font-family="Sans Serif" stroke-width="1" fill-opacity="1" stroke-linecap="square" fill="#000000" stroke-opacity="1" font-size="12" font-style="normal">
   <path fill-rule="evenodd" vector-effect="none" d="M175.965,43.2475 L174.86,43.0896 L173.755,42.9317 L172.653,42.7738 L171.553,42.6159 L170.456,42.4579 L169.364,42.3 L168.277,42.1421 L167.196,41.9841 L166.122,41.8262 L165.056,41.6682 L163.998,41.5103 L162.951,41.3523 L161.913,41.1944 L160.887,41.0364 L159.874,40.8785 L158.873,40.7205 L157.887,40.5625 L156.915,40.4046 L155.968,40.248 L155.009,40.1552 L154.042,40.0679 L153.075,39.9869 L152.107,39.912 L151.139,39.8434 L150.17,39.7811 L149.199,39.725 L148.227,39.6751 L147.254,39.6314 L146.279,39.594 L145.302,39.5628 L144.322,39.5379 L143.341,39.5192 L142.356,39.5067 L141.369,39.5005 L140.379,39.5005 L139.385,39.5067 L138.388,39.5192 L137.388,39.5379 L136.384,39.5629 L135.375,39.5941 L134.362,39.6315 L133.345,39.6752 L132.324,39.7251 L131.297,39.7812 L130.265,39.8436 L129.228,39.9122 L128.185,39.987 L127.137,40.0681 L126.083,40.1554 L125.459,40.2105 L126,44 L115,42 L125,37 L125.388,39.7148 L126.04,39.6573 L127.097,39.5698 L128.147,39.4885 L129.193,39.4135 L130.232,39.3448 L131.267,39.2823 L132.297,39.226 L133.322,39.176 L134.342,39.1323 L135.358,39.0948 L136.37,39.0635 L137.377,39.0385 L138.381,39.0198 L139.382,39.0073 L140.378,39.0011 L141.372,39.0011 L142.363,39.0073 L143.351,39.0198 L144.336,39.0386 L145.319,39.0636 L146.299,39.0949 L147.278,39.1324 L148.254,39.1761 L149.229,39.2261 L150.203,39.2824 L151.175,39.3449 L152.146,39.4137 L153.117,39.4887 L154.087,39.57 L155.056,39.6575 L156.025,39.7512 L156.041,39.7534 L156.996,39.9112 L157.967,40.069 L158.953,40.2269 L159.952,40.3847 L160.965,40.5425 L161.99,40.7003 L163.027,40.8582 L164.074,41.016 L165.13,41.1739 L166.196,41.3317 L167.269,41.4895 L168.35,41.6474 L169.436,41.8053 L170.528,41.9631 L171.624,42.121 L172.724,42.2789 L173.826,42.4367 L174.93,42.5946 L176.035,42.7525 L176.283,42.7879 L176.212,43.2828 L175.965,43.2475"/>
  </g>
  <g font-weight="400" stroke-linejoin="bevel" transform="matrix(1,0,0,1,10,11)" stroke="#000000" font-family="DejaVu Sans" stroke-width="1" fill-opacity="1" stroke-linecap="square" fill="#000000" stroke-opacity="1" font-size="10.6667" font-style="normal"/>
  <g font-weight="400" stroke-linejoin="bevel" transform="matrix(1,0,0,1,10,11)" stroke="#000000" font-family="DejaVu Sans" stroke-width="1" fill-opacity="1" stroke-linecap="square" fill="#000000" stroke-opacity="1" font-size="10.6667" font-style="normal">
   <text xml:space="preserve" font-weight="400" stroke="none" x="136" y="50" font-family="DejaVu Sans" fill-opacity="1" fill="#000000" font-size="10.6667" font-style="normal">364</text>
  </g>
  <g font-weight="400" stroke-linejoin="bevel" transform="matrix(1,0,0,1,10,11)" stroke="#000000" font-family="DejaVu Sans" stroke-width="1" fill-opacity="1" stroke-linecap="square" fill="#000000" stroke-opacity="1" font-size="10.6667" font-style="normal"/>
  <g font-weight="400" stroke-linejoin="bevel" transform="matrix(1,0,0,1,0,0)" stroke="#000000" font-family="DejaVu Sans" stroke-width="1" fill-opacity="1" stroke-linecap="square" fill="#000000" stroke-opacity="1" font-size="10.6667" font-style="normal"/>
  <g font-weight="400" stroke-linejoin="bevel" transform="matrix(1,0,0,1,10,11)" stroke="#000000" font-family="DejaVu Sans" stroke-width="1" fill-opacity="1" stroke-linecap="square" fill="#000000" stroke-opacity="1" font-size="10.6667" font-style="normal"/>
  <g font-weight="400" stroke-linejoin="bevel" transform="matrix(1,0,0,1,10,11)" stroke="#000000" font-family="Sans Serif" stroke-width="1" stroke-linecap="square" fill="none" stroke-opacity="1" font-size="12" font-style="normal"/>
  <g font-weight="400" stroke-linejoin="bevel" transform="matrix(1,0,0,1,10,11)" stroke="#000000" font-family="Sans Serif" stroke-width="1" stroke-linecap="square" fill="none" stroke-opacity="1" font-size="12" font-style="normal"/>
  <g font-weight="400" stroke-linejoin="bevel" transform="matrix(1,0,0,1,10,11)" stroke="#000000" font-family="Sans Serif" stroke-width="1" fill-opacity="1" stroke-linecap="square" fill="#000000" stroke-opacity="1" font-size="12" font-style="normal">
   <path fill-rule="evenodd" vector-effect="none" d="M118,57.75 L164,57.75 L164,55 L174,58 L164,62 L164,58.25 L117.75,58.25 L117.75,57.75 L118,57.75"/>
  </g>
  <g font-weight="400" stroke-linejoin="bevel" transform="matrix(1,0,0,1,10,11)" stroke="#000000" font-family="DejaVu Sans" stroke-width="1" fill-opacity="1" stroke-linecap="square" fill="#000000" stroke-opacity="1" font-size="10.6667" font-style="normal"/>
  <g font-weight="400" stroke-linejoin="bevel" transform="matrix(1,0,0,1,10,11)" stroke="#000000" font-family="DejaVu Sans" stroke-width="1" fill-opacity="1" stroke-linecap="square" fill="#000000" stroke-opacity="1" font-size="10.6667" font-style="normal">
   <text xml:space="preserve" font-weight="400" stroke="none" x="136" y="68" font-family="DejaVu Sans" fill-opacity="1" fill="#000000" font-size="10.6667" font-style="normal">364</text>
  </g>
  <g font-weight="400" stroke-linejoin="bevel" transform="matrix(1,0,0,1,10,11)" stroke="#000000" font-family="DejaVu Sans" stroke-width="1" fill-opacity="1" stroke-linecap="square" fill="#000000" stroke-opacity="1" font-size="10.6667" font-style="normal"/>
  <g font-weight="400" stroke-linejoin="bevel" transform="matrix(1,0,0,1,0,0)" stroke="#000000" font-family="DejaVu Sans" stroke-width="1" fill-opacity="1" stroke-linecap="square" fill="#000000" stroke-opacity="1" font-size="10.6667" font-style="normal"/>
  <g font-weight="400" stroke-linejoin="bevel" transform="matrix(1,0,0,1,10,11)" stroke="#000000" font-family="DejaVu Sans" stroke-width="1" fill-opacity="1" stroke-linecap="square" fill="#000000" stroke-opacity="1" font-size="10.6667" font-style="normal"/>
  <g font-weight="400" stroke-linejoin="bevel" transform="matrix(1,0,0,1,10,11)" stroke="#000000" font-family="Sans Serif" stroke-width="1" stroke-linecap="square" fill="none" stroke-opacity="1" font-size="12" font-style="normal"/>
  <g font-weight="400" stroke-linejoin="bevel" transform="matrix(1,0,0,1,0,0)" stroke="#000000" font-family="Sans Serif" stroke-width="1" stroke-linecap="square" fill="none" stroke-opacity="1" font-size="12" font-style="normal"/>
 </g>
</svg>
